<svg width="40" height="40" viewBox="0 0 40 40" fill="none" xmlns="http://www.w3.org/2000/svg">
<g clip-path="url(#clip0_3996_45)">
<mask id="mask0_3996_45" style="mask-type:luminance" maskUnits="userSpaceOnUse" x="0" y="0" width="40" height="40">
<path d="M40 0H0V40H40V0Z" fill="white"/>
</mask>
<g mask="url(#mask0_3996_45)">
<path d="M40 20C40 31.0468 31.0468 40 20 40C8.95312 40 0 31.0468 0 20C0 8.95312 8.95312 0 20 0C31.0468 0 40 8.95312 40 20Z" fill="#5A89FF"/>
<path d="M32.25 30.4529L31.8032 26.0373C31.791 25.9147 31.7546 25.7957 31.6962 25.6873C31.6378 25.5787 31.5586 25.4827 31.4632 25.4049C31.3676 25.3271 31.2576 25.2689 31.1396 25.2337C31.0214 25.1985 30.8976 25.1871 30.775 25.1999L26.3594 25.6467L26.5468 27.5123L28.9624 27.2687C25.4812 31.5655 19.2937 32.8623 14.3218 30.0561C12.5047 29.0331 10.9991 27.5361 9.96558 25.7249L8.33746 26.6531C9.53898 28.7577 11.2885 30.4975 13.4 31.6873C15.4048 32.8207 17.6688 33.4161 19.9718 33.4155C23.8312 33.4155 27.6 31.7467 30.1876 28.7249L30.3812 30.6405L32.25 30.4529ZM26.5876 8.28113C23.4656 6.51863 19.8437 6.07801 16.3906 7.04051C13.7875 7.76551 11.5156 9.22177 9.79996 11.2343L9.6062 9.32801L7.74058 9.51551L8.18746 13.9311C8.21068 14.1621 8.31876 14.3763 8.4908 14.5321C8.66282 14.688 8.88656 14.7745 9.11872 14.7749C9.14996 14.7749 9.1812 14.7749 9.21246 14.7686L13.6281 14.3218L13.4406 12.4561L11.0218 12.6999C12.5187 10.8436 14.55 9.49989 16.8937 8.84677C19.8625 8.01863 22.9782 8.39677 25.6656 9.91239C27.482 10.9352 28.9874 12.4308 30.0218 14.2405L31.65 13.3124C30.4474 11.2092 28.6982 9.47063 26.5876 8.28113ZM7.96872 22.1531C7.79996 22.1531 7.59684 22.1593 7.39058 22.1749C8.7562 20.8093 9.36872 19.7343 9.36872 18.7186C9.36872 17.5249 8.56246 16.7218 7.36246 16.7218C6.60308 16.7218 6.00934 17.0093 5.3812 17.6874L5.27808 17.7999L6.04684 18.5561L6.15622 18.4311C6.52184 18.0061 6.88122 17.803 7.24684 17.803C7.80934 17.803 8.13122 18.1561 8.13122 18.7718C8.13122 19.6749 7.30308 20.8093 5.44372 22.4561L5.39058 22.5031V23.2873H9.6562V22.1593H7.96872V22.1531ZM12.3281 16.8343H10.5812V23.2811H12.3781C14.325 23.2811 15.4437 22.0967 15.4437 20.0343C15.4406 17.9718 14.3343 16.8343 12.3281 16.8343ZM14.1281 20.0343C14.1281 21.4561 13.5 22.1781 12.2593 22.1781H11.8562V17.9311H12.2593C13.5187 17.9311 14.1281 18.6186 14.1281 20.0343ZM27.9 19.8499C28.4344 19.5468 28.725 19.053 28.725 18.4311C28.725 17.3905 27.9406 16.7186 26.725 16.7186C26.0688 16.7186 25.4688 16.9686 24.8938 17.4874L24.7812 17.5874L25.4782 18.4218L25.6 18.303C25.9562 17.953 26.3156 17.7811 26.6938 17.7749C27.1782 17.7811 27.4656 18.0499 27.4656 18.4936C27.4656 18.7155 27.4656 19.3936 26.0406 19.3936H25.8844V20.4031H26.0406C27.4782 20.4031 27.6718 20.8843 27.6718 21.3531C27.6718 21.8717 27.2938 22.1967 26.6812 22.1967C26.1968 22.1967 25.7782 21.9999 25.3688 21.5811L25.2406 21.4499L24.5938 22.3031L24.6782 22.3999C25.1968 22.9843 25.9 23.2781 26.7594 23.2781C28.0376 23.2781 28.9312 22.5031 28.9312 21.3937C28.9282 20.6937 28.5438 20.1249 27.9 19.8499ZM31.5906 16.8343H29.8688V23.1749H31.6376C33.5532 23.1749 34.6532 22.0093 34.6532 19.9811C34.6562 17.9499 33.5688 16.8343 31.5906 16.8343ZM33.3594 19.978C33.3594 21.3749 32.7406 22.0811 31.525 22.0811H31.1312V17.9155H31.525C32.7594 17.9155 33.3594 18.5905 33.3594 19.978Z" fill="white"/>
<path d="M35.6 15.8H2.80005V24H35.6V15.8Z" fill="#5A89FF"/>
<path d="M3.86821 18.1454H4.84093V21.391C4.84093 21.691 4.77351 21.9516 4.63867 22.1728C4.50533 22.394 4.31973 22.5644 4.08185 22.684C3.84397 22.8038 3.56745 22.8636 3.25231 22.8636C2.97199 22.8636 2.71745 22.8144 2.48867 22.716C2.26139 22.616 2.08109 22.4644 1.94775 22.2614C1.81442 22.0568 1.74851 21.8 1.75003 21.491H2.72957C2.73261 21.6136 2.75761 21.719 2.80457 21.8068C2.85307 21.8932 2.91897 21.9598 3.00231 22.0068C3.08715 22.0522 3.18715 22.075 3.30231 22.075C3.42351 22.075 3.52579 22.0492 3.60913 21.9978C3.69397 21.9446 3.75837 21.8674 3.80231 21.766C3.84625 21.6644 3.86821 21.5394 3.86821 21.391V18.1454ZM8.17957 19.4841C8.16139 19.3007 8.08336 19.1583 7.94548 19.0568C7.8076 18.9553 7.62049 18.9045 7.38413 18.9045C7.22351 18.9045 7.0879 18.9272 6.9773 18.9727C6.86668 19.0166 6.78185 19.078 6.72275 19.1568C6.66519 19.2356 6.63639 19.325 6.63639 19.425C6.63337 19.5083 6.65079 19.581 6.68867 19.6431C6.72807 19.7053 6.78185 19.7591 6.85003 19.8045C6.91821 19.8484 6.99699 19.8871 7.08639 19.9204C7.17579 19.9522 7.27125 19.9795 7.37275 20.0022L7.79092 20.1022C7.99396 20.1478 8.18033 20.2084 8.35003 20.284C8.51973 20.3598 8.66669 20.453 8.79093 20.5636C8.91519 20.6742 9.01139 20.8046 9.07957 20.9546C9.14927 21.1046 9.18487 21.2766 9.18639 21.4704C9.18487 21.7554 9.11215 22.0022 8.96821 22.2114C8.82579 22.419 8.61973 22.5804 8.35003 22.6954C8.08185 22.809 7.75837 22.866 7.37957 22.866C7.00381 22.866 6.67655 22.8084 6.39775 22.6932C6.12049 22.578 5.90381 22.4076 5.74775 22.1818C5.59321 21.9546 5.51215 21.6734 5.50457 21.3386H6.45685C6.46745 21.4946 6.51214 21.625 6.59092 21.7296C6.67124 21.8326 6.77807 21.9106 6.91139 21.9636C7.04625 22.0152 7.19851 22.041 7.36821 22.041C7.53487 22.041 7.67956 22.0166 7.8023 21.9682C7.92654 21.9196 8.02274 21.8522 8.09092 21.766C8.15912 21.6796 8.19321 21.5804 8.19321 21.4682C8.19321 21.3636 8.16215 21.2758 8.10003 21.2046C8.03943 21.1334 7.95003 21.0728 7.83185 21.0228C7.71519 20.9728 7.57198 20.9272 7.4023 20.8864L6.89548 20.759C6.50307 20.6636 6.19321 20.5144 5.96593 20.3114C5.73867 20.1084 5.62579 19.8348 5.62731 19.4909C5.62579 19.2091 5.70079 18.9628 5.85231 18.7522C6.00533 18.5416 6.21519 18.3772 6.48185 18.2591C6.74851 18.1409 7.05154 18.0818 7.39092 18.0818C7.73638 18.0818 8.03791 18.1409 8.29549 18.2591C8.55457 18.3772 8.75609 18.5416 8.90003 18.7522C9.04397 18.9628 9.11821 19.2068 9.12275 19.4841H8.17957ZM14.1256 20.4728C14.1256 20.9804 14.0294 21.4122 13.837 21.7682C13.646 22.1242 13.3854 22.3962 13.0551 22.584C12.7263 22.7704 12.3566 22.8636 11.946 22.8636C11.5324 22.8636 11.1612 22.7696 10.8324 22.5818C10.5036 22.394 10.2438 22.122 10.0529 21.766C9.86197 21.4098 9.76651 20.9788 9.76651 20.4728C9.76651 19.9651 9.86197 19.5333 10.0529 19.1772C10.2438 18.8212 10.5036 18.55 10.8324 18.3636C11.1612 18.1757 11.5324 18.0818 11.946 18.0818C12.3566 18.0818 12.7263 18.1757 13.0551 18.3636C13.3854 18.55 13.646 18.8212 13.837 19.1772C14.0294 19.5333 14.1256 19.9651 14.1256 20.4728ZM13.1279 20.4728C13.1279 20.144 13.0786 19.8666 12.9801 19.6409C12.8832 19.4151 12.746 19.2439 12.5688 19.1272C12.3915 19.0106 12.1839 18.9522 11.946 18.9522C11.7082 18.9522 11.5006 19.0106 11.3233 19.1272C11.146 19.2439 11.0082 19.4151 10.9097 19.6409C10.8127 19.8666 10.7642 20.144 10.7642 20.4728C10.7642 20.8016 10.8127 21.0788 10.9097 21.3046C11.0082 21.5304 11.146 21.7016 11.3233 21.8182C11.5006 21.9348 11.7082 21.9932 11.946 21.9932C12.1839 21.9932 12.3915 21.9348 12.5688 21.8182C12.746 21.7016 12.8832 21.5304 12.9801 21.3046C13.0786 21.0788 13.1279 20.8016 13.1279 20.4728ZM18.7477 18.1454V22.8H17.8977L15.8727 19.8704H15.8387V22.8H14.8546V18.1454H15.7182L17.7273 21.0728H17.7682V18.1454H18.7477Z" fill="white"/>
<path d="M27.4272 18.9568V18.1454H31.25V18.9568H29.825V22.8H28.8522V18.9568H27.4272ZM34.4046 19.4841C34.3864 19.3007 34.3084 19.1583 34.1704 19.0568C34.0326 18.9553 33.8454 18.9045 33.609 18.9045C33.4484 18.9045 33.3128 18.9272 33.2022 18.9727C33.0916 19.0166 33.0068 19.078 32.9478 19.1568C32.8902 19.2356 32.8614 19.325 32.8614 19.425C32.8584 19.5083 32.8758 19.581 32.9136 19.6431C32.953 19.7053 33.0068 19.7591 33.075 19.8045C33.1432 19.8484 33.222 19.8871 33.3114 19.9204C33.4008 19.9522 33.4962 19.9795 33.5978 20.0022L34.016 20.1022C34.219 20.1478 34.4054 20.2084 34.575 20.284C34.7446 20.3598 34.8916 20.453 35.016 20.5636C35.1402 20.6742 35.2364 20.8046 35.3046 20.9546C35.3742 21.1046 35.4098 21.2766 35.4114 21.4704C35.4098 21.7554 35.3372 22.0022 35.1932 22.2114C35.0508 22.419 34.8446 22.5804 34.575 22.6954C34.3068 22.809 33.9834 22.866 33.6046 22.866C33.2288 22.866 32.9016 22.8084 32.6228 22.6932C32.3454 22.578 32.1288 22.4076 31.9728 22.1818C31.8182 21.9546 31.7372 21.6734 31.7296 21.3386H32.6818C32.6924 21.4946 32.7372 21.625 32.816 21.7296C32.8962 21.8326 33.003 21.9106 33.1364 21.9636C33.2712 22.0152 33.4234 22.041 33.5932 22.041C33.7598 22.041 33.9046 22.0166 34.0272 21.9682C34.1516 21.9196 34.2478 21.8522 34.316 21.766C34.384 21.6796 34.4182 21.5804 34.4182 21.4682C34.4182 21.3636 34.3872 21.2758 34.325 21.2046C34.2644 21.1334 34.175 21.0728 34.0568 21.0228C33.9402 20.9728 33.797 20.9272 33.6272 20.8864L33.1204 20.759C32.728 20.6636 32.4182 20.5144 32.191 20.3114C31.9636 20.1084 31.8508 19.8348 31.8522 19.4909C31.8508 19.2091 31.9258 18.9628 32.0772 18.7522C32.2304 18.5416 32.4402 18.3772 32.7068 18.2591C32.9734 18.1409 33.2766 18.0818 33.616 18.0818C33.9614 18.0818 34.2628 18.1409 34.5204 18.2591C34.7796 18.3772 34.981 18.5416 35.125 18.7522C35.269 18.9628 35.3432 19.2068 35.3478 19.4841H34.4046Z" fill="white"/>
</g>
</g>
<defs>
<clipPath id="clip0_3996_45">
<rect width="40" height="40" fill="white"/>
</clipPath>
</defs>
</svg>
